<svg width="85" height="72" viewBox="0 0 85 72" fill="none" xmlns="http://www.w3.org/2000/svg">
    <path d="M 4 4.8 C 2 5 0.4 6.8 0.5 8.8 L 3.3 57.9 C 3.4 59.9 5 61.4 6.9 61.5 L 15.9 61.9 C 17.2 61.9 18.3 62.7 19 63.8 L 22.6 70.1 C 24.1 72.6 27.7 72.6 29.2 70.1 L 32.4 64.6 C 33.1 63.4 34.4 62.7 35.8 62.7 L 66 64 C 67.9 64 69.5 62.8 69.9 60.9 L 81.5 4.6 C 82 2.1 80 -0.2 77.5 0 L 4 4.8 Z" fill="#7b16ff"/>
    <path d="M 43.1 29.6 C 42.4 29.4 42.1 28.8 42.2 28.2 L 45.5 14.6 C 45.8 13.5 44.4 12.7 43.6 13.5 L 26.1 31.6 C 25.5 32.2 25.8 33.3 26.7 33.5 L 32.3 34.9 C 32.9 35 33.3 35.7 33.1 36.3 L 29.8 49.8 C 29.5 51 30.9 51.7 31.7 50.9 L 49.2 32.9 C 49.8 32.2 49.5 31.2 48.6 30.9 L 43.1 29.6 Z" fill="#ddd9ff"/>
    <path fill-rule="evenodd" clip-rule="evenodd" d="M 48.9 31 C 48.8 31 48.7 31 48.6 30.9 L 43.1 29.6 C 42.4 29.4 42.1 28.8 42.2 28.2 L 42.3 27.9 C 41.8 27.7 41.6 27.2 41.7 26.6 L 45 13.3 C 44.5 13.1 44 13.1 43.6 13.5 L 26.1 31.6 C 26 31.7 25.9 31.8 25.9 31.9 C 26 31.9 26.1 31.9 26.2 32 L 31.8 33.4 C 32.4 33.5 32.8 34.1 32.6 34.8 L 32.5 35 C 33 35.2 33.2 35.8 33.1 36.3 L 29.8 49.6 C 30.3 49.8 30.8 49.8 31.2 49.4 L 48.7 31.4 C 48.8 31.3 48.9 31.2 48.9 31 Z" fill="white"/>
</svg>
